<?xml version="1.0" standalone="no"?>
<!DOCTYPE svg PUBLIC "-//W3C//DTD SVG 20010904//EN"
 "http://www.w3.org/TR/2001/REC-SVG-20010904/DTD/svg10.dtd">
<svg version="1.0" xmlns="http://www.w3.org/2000/svg"
 width="502.000000pt" height="502.000000pt" viewBox="0 0 502.000000 502.000000"
 preserveAspectRatio="xMidYMid meet">
<metadata>
Created by potrace 1.14, written by Peter Selinger 2001-2017
</metadata>
<g transform="translate(0.000000,502.000000) scale(0.100000,-0.100000)"
fill="#000000" stroke="none">
<path d="M1219 4624 c-155 -82 -221 -188 -235 -376 l-5 -57 28 9 c61 18 86 32
127 70 55 52 123 187 140 281 3 13 5 24 6 24 1 0 3 7 5 15 1 8 6 27 10 43 4
15 3 27 -1 27 -5 0 -39 -16 -75 -36z"/>
<path d="M3793 4633 c3 -16 12 -53 21 -83 9 -30 19 -64 21 -75 15 -67 89 -183
148 -231 20 -17 77 -45 77 -39 0 3 9 1 19 -5 29 -15 33 0 22 87 -20 162 -82
254 -225 332 -40 23 -77 41 -81 41 -4 0 -5 -12 -2 -27z"/>
<path d="M826 4464 c-4 -14 -13 -33 -21 -41 -41 -40 -58 -183 -40 -343 7 -67
13 -133 14 -167 1 -9 28 -11 39 -3 3 3 7 4 57 14 57 11 189 57 193 67 2 5 9 9
16 9 21 0 93 73 116 118 28 54 20 64 -51 63 -94 -1 -123 -8 -166 -38 -17 -13
-34 -23 -36 -23 -2 0 -4 28 -5 63 -1 105 -17 168 -62 251 -31 59 -45 66 -54
30z"/>
<path d="M4211 4439 c-28 -48 -44 -91 -57 -154 -3 -11 -5 -53 -6 -92 0 -74 -6
-85 -28 -59 -12 15 -67 37 -105 42 -35 5 -137 5 -142 0 -11 -10 19 -75 53
-115 53 -61 168 -112 356 -156 24 -5 25 -1 32 87 4 42 9 94 12 115 7 45 7 145
1 188 -6 45 -29 115 -37 115 -5 0 -10 10 -13 23 -4 12 -13 31 -20 41 -14 19
-16 17 -46 -35z"/>
<path d="M622 4078 c-50 -110 -63 -193 -47 -298 5 -31 13 -118 14 -159 1 -9
10 -12 34 -8 69 11 194 45 230 62 40 19 109 81 127 115 9 17 6 20 -22 28 -41
11 -165 6 -201 -7 l-26 -10 -1 67 c0 101 0 103 -31 168 -42 89 -53 95 -77 42z"/>
<path d="M4413 4079 c-40 -58 -60 -129 -57 -208 l2 -63 -41 8 c-58 10 -197 8
-209 -4 -12 -12 -5 -21 56 -84 50 -51 98 -72 247 -103 9 -2 33 -8 53 -13 36
-10 36 -10 37 21 0 35 5 84 15 162 12 99 -4 193 -49 282 l-24 46 -30 -44z"/>
<path d="M2565 4064 c2 -16 4 -35 4 -41 1 -12 26 -37 80 -81 l25 -19 -45 -20
c-53 -24 -86 -58 -93 -95 -2 -16 -3 -28 -1 -28 2 0 16 12 32 28 40 38 72 62
81 62 4 0 16 13 25 30 22 36 15 51 -60 135 -48 54 -52 56 -48 29z"/>
<path d="M2415 4048 c8 -41 16 -51 71 -83 24 -14 44 -29 44 -33 0 -4 -15 -15
-32 -25 -43 -23 -78 -75 -78 -117 l0 -33 26 39 c15 21 43 55 63 74 57 55 54
74 -25 147 -37 35 -69 63 -71 63 -2 0 -1 -14 2 -32z"/>
<path d="M2712 4034 c0 -29 8 -44 44 -80 45 -44 49 -64 15 -64 -29 0 -98 -56
-109 -89 -6 -17 -9 -31 -6 -31 3 0 24 16 47 35 22 19 47 35 54 35 7 0 13 5 13
10 0 6 6 10 13 10 21 0 40 44 32 71 -4 13 -25 46 -46 73 -22 27 -39 53 -39 57
0 5 -4 9 -9 9 -5 0 -9 -16 -9 -36z"/>
<path d="M2267 4054 c-19 -19 47 -104 81 -104 9 0 25 -6 34 -14 15 -11 13 -16
-28 -55 -49 -46 -68 -83 -58 -113 5 -16 10 -13 34 24 16 24 42 58 58 77 36 42
32 73 -16 109 -19 15 -49 39 -67 54 -18 15 -35 25 -38 22z"/>
<path d="M2861 4012 c-2 -46 0 -50 45 -90 26 -23 45 -44 43 -47 -3 -3 -19 -6
-35 -8 -17 -2 -35 -7 -42 -11 -7 -4 -12 -4 -12 1 0 4 -4 4 -8 -2 -4 -5 -16
-15 -27 -21 -24 -13 -52 -60 -42 -70 4 -4 17 2 30 14 12 11 48 32 79 46 73 32
83 50 57 102 -31 62 -45 84 -51 78 -3 -3 -10 9 -16 25 -6 17 -13 31 -15 31 -2
0 -4 -22 -6 -48z"/>
<path d="M2110 4022 c0 -24 28 -68 52 -79 12 -7 37 -15 55 -18 29 -6 68 -35
46 -35 -11 0 -93 -77 -94 -88 0 -4 -2 -17 -5 -30 -2 -13 0 -31 6 -40 9 -16 9
-16 10 1 0 9 4 17 8 17 5 0 14 10 21 23 6 12 25 40 41 62 16 22 29 48 30 57 0
26 -39 63 -100 94 -30 16 -58 33 -62 39 -5 6 -8 5 -8 -3z"/>
<path d="M3013 3992 c-10 -38 -9 -46 14 -80 14 -20 29 -38 34 -40 5 -2 9 -12
9 -23 0 -14 -7 -19 -28 -19 -34 0 -103 -34 -116 -57 -24 -42 -12 -57 19 -23
10 11 22 17 26 14 5 -3 9 -1 9 4 0 5 6 9 13 9 20 0 88 35 94 49 12 31 8 52
-20 102 -16 30 -33 66 -36 81 -7 24 -8 23 -18 -17z"/>
<path d="M1960 3971 c0 -4 5 -12 12 -19 7 -7 8 -12 3 -12 -14 0 49 -50 65 -51
25 -1 74 -10 78 -14 2 -2 -7 -19 -21 -37 -52 -70 -66 -123 -39 -150 9 -9 12
-8 12 6 0 10 15 48 34 85 18 36 32 74 30 84 -3 22 -33 57 -48 57 -6 0 -37 13
-68 29 -32 16 -58 26 -58 22z"/>
<path d="M3159 3970 c-12 -55 -8 -100 15 -143 14 -26 22 -47 18 -48 -4 0 -23
-3 -42 -6 -19 -2 -41 -5 -49 -6 -16 0 -86 -65 -79 -72 3 -3 18 1 34 10 16 8
34 15 41 15 7 0 37 11 67 24 54 24 54 25 51 63 -4 51 -50 186 -56 163z"/>
<path d="M1820 3911 c0 -4 13 -21 29 -39 29 -31 39 -34 119 -35 27 0 28 -11 3
-45 -27 -38 -42 -99 -31 -127 13 -35 25 -37 26 -5 1 16 11 51 23 79 25 58 27
94 6 111 -17 14 -175 69 -175 61z"/>
<path d="M3290 3871 c-14 -35 -7 -100 12 -112 7 -5 9 -9 5 -9 -4 0 -3 -9 3
-20 10 -19 7 -20 -40 -21 -59 -2 -61 -2 -77 -12 -7 -5 -13 -5 -13 -2 0 3 -11
-6 -25 -21 -28 -30 -34 -56 -7 -31 9 8 19 15 22 15 3 0 23 3 45 7 22 4 48 9
59 11 10 2 30 11 43 20 26 17 27 31 6 144 -2 14 -5 33 -6 43 -2 26 -13 21 -27
-12z"/>
<path d="M1690 3831 c0 -23 64 -54 117 -57 31 -2 57 -5 59 -7 2 -2 -5 -22 -16
-45 -25 -52 -26 -103 -1 -133 l19 -24 0 30 c0 17 2 39 5 50 3 11 8 44 12 73 6
45 5 55 -11 67 -39 29 -184 65 -184 46z"/>
<path d="M3411 3792 c-20 -47 -20 -68 -1 -110 11 -23 16 -42 12 -43 -4 -1 -29
-1 -57 -1 -55 -1 -91 -13 -117 -40 -24 -23 -23 -31 2 -18 11 6 39 12 62 14 69
6 117 17 127 30 7 9 8 129 1 146 -1 3 -2 12 -1 22 3 28 -16 29 -28 0z"/>
<path d="M396 3748 c-3 -18 -9 -44 -12 -58 -16 -77 -21 -174 -10 -230 14 -71
25 -116 40 -157 8 -22 12 -44 9 -47 -14 -14 21 -4 60 16 23 12 44 23 47 23 3
1 30 13 60 28 64 31 137 97 146 132 3 14 9 25 13 25 4 0 8 6 8 13 0 6 4 20 8
29 5 14 -2 18 -40 23 -59 9 -100 1 -147 -30 -21 -14 -39 -22 -39 -18 -1 5 -3
20 -5 36 -8 73 -19 116 -38 151 -17 33 -73 96 -86 96 -4 0 -11 -15 -14 -32z"/>
<path d="M4647 3760 c-45 -35 -81 -126 -92 -230 -2 -14 -3 -29 -4 -34 -1 -5
-7 -4 -13 2 -57 46 -116 60 -187 46 -29 -6 -32 -10 -26 -33 4 -14 10 -28 14
-31 5 -3 12 -16 16 -29 14 -44 81 -97 190 -150 83 -40 110 -49 116 -39 14 22
61 229 55 244 -3 7 -1 16 5 19 5 4 7 10 4 15 -2 4 -7 36 -9 71 -4 56 -31 169
-40 169 -2 0 -15 -9 -29 -20z"/>
<path d="M1570 3740 c0 -21 60 -47 104 -45 24 1 48 5 54 9 19 11 23 -12 9 -46
-16 -39 -15 -100 3 -134 19 -35 25 -30 26 24 0 26 2 65 4 87 5 65 1 75 -27 86
-58 22 -173 35 -173 19z"/>
<path d="M3527 3713 c-21 -39 -26 -83 -14 -113 20 -50 19 -50 -47 -44 -65 6
-107 -6 -136 -41 -11 -14 -10 -15 11 -7 13 5 50 10 83 11 123 5 128 10 127
126 0 48 -3 90 -5 92 -3 3 -11 -8 -19 -24z"/>
<path d="M2440 3702 c0 -8 -8 -10 -24 -6 -13 3 -27 1 -30 -5 -4 -6 -12 -11
-17 -11 -6 0 -7 5 -3 11 5 8 1 8 -14 0 -11 -6 -30 -11 -42 -11 -14 0 -19 -4
-14 -12 5 -9 2 -9 -9 1 -13 11 -17 11 -17 1 0 -8 -3 -10 -7 -7 -3 4 -17 0 -30
-8 -13 -9 -23 -13 -23 -9 0 4 -6 1 -14 -5 -11 -10 -16 -8 -21 8 -5 17 -9 19
-26 8 -10 -6 -19 -17 -19 -23 0 -6 -17 -16 -37 -23 -43 -15 -202 -111 -259
-156 -65 -53 -146 -138 -198 -210 -60 -82 -136 -224 -136 -253 0 -11 -4 -22
-8 -24 -7 -3 -43 -112 -58 -178 -10 -45 -12 -340 -2 -383 5 -23 11 -51 14 -61
5 -26 25 -89 33 -101 3 -5 6 -15 7 -22 7 -45 56 -149 77 -164 5 -3 7 -8 5 -11
-5 -6 65 -118 74 -118 4 0 8 -7 8 -16 0 -8 4 -13 8 -10 4 2 14 -9 21 -25 7
-16 17 -27 22 -23 5 3 9 0 9 -6 0 -28 163 -162 284 -232 111 -65 275 -122 378
-132 26 -3 52 -7 58 -11 5 -3 10 -1 10 5 0 7 6 8 19 0 20 -10 252 -7 301 4 14
3 39 8 55 12 117 22 338 123 442 201 245 183 420 482 438 748 2 22 4 40 6 40
5 0 6 191 0 200 -3 6 -7 28 -7 50 -1 22 -5 54 -8 70 -4 17 -9 44 -12 60 -9 49
-71 201 -111 272 -68 123 -188 257 -313 350 -96 72 -264 155 -337 166 -18 3
-37 8 -42 12 -6 3 -21 8 -33 11 -13 2 -36 7 -53 11 -16 3 -45 6 -62 7 -18 1
-33 4 -33 7 0 3 -40 6 -90 5 -55 0 -90 -4 -90 -11 0 -5 -5 -3 -10 5 -5 8 -10
10 -10 4 0 -14 -33 -14 -42 0 -5 8 -8 7 -8 -2z"/>
<path d="M1450 3642 c0 -23 65 -40 131 -36 l67 4 -13 -42 c-15 -50 -9 -101 16
-142 l17 -29 2 79 c3 144 3 144 -57 161 -48 14 -163 17 -163 5z"/>
<path d="M3636 3608 c-20 -31 -30 -101 -18 -124 14 -28 5 -46 -18 -34 -10 5
-42 12 -72 16 -51 6 -57 4 -87 -22 l-32 -29 35 0 c20 0 36 3 36 7 0 4 10 4 23
-1 32 -12 118 -5 133 11 7 7 16 40 19 73 4 33 8 75 10 93 4 37 -8 42 -29 10z"/>
<path d="M1467 3554 c-1 -2 -28 -4 -60 -5 -60 -3 -71 -11 -36 -29 31 -17 112
-14 167 5 10 4 11 -1 6 -17 -20 -65 6 -178 42 -178 12 0 14 4 7 13 -6 6 -11
41 -12 75 -3 86 -8 104 -28 116 -18 11 -80 25 -86 20z"/>
<path d="M3753 3513 c-23 -9 -50 -87 -47 -135 l3 -46 -49 19 c-52 20 -103 19
-141 -1 -11 -7 -19 -13 -17 -15 3 -3 115 -15 181 -19 40 -2 50 9 62 64 2 8 4
15 5 15 1 0 3 11 4 25 2 14 6 42 10 63 4 20 6 37 4 36 -2 0 -9 -3 -15 -6z"/>
<path d="M1347 3433 c-3 -2 -55 -11 -77 -13 -11 0 -9 -5 7 -19 26 -22 78 -20
135 4 l36 14 1 -56 c0 -70 15 -107 47 -122 33 -14 39 -14 25 2 -6 8 -12 35
-13 60 -2 26 -7 47 -11 47 -5 0 -6 4 -3 8 10 17 -26 71 -53 77 -24 5 -89 4
-94 -2z"/>
<path d="M3823 3371 c-28 -23 -40 -54 -41 -105 -1 -21 -3 -40 -5 -42 -2 -2
-23 6 -46 18 -53 26 -126 27 -151 2 -6 -6 1 -10 23 -12 30 -1 72 -8 72 -12 0
-1 7 -3 15 -5 54 -12 77 -14 91 -10 16 6 47 64 52 100 1 11 6 26 10 33 5 6 6
12 2 12 -3 0 -1 9 5 20 13 25 2 25 -27 1z"/>
<path d="M249 3333 c-6 -165 7 -225 85 -368 69 -126 62 -121 109 -77 162 150
216 228 233 337 l6 46 -32 -6 c-18 -3 -44 -12 -59 -19 -31 -17 -113 -95 -137
-132 l-17 -26 -15 39 c-46 127 -88 190 -144 219 -27 14 -28 14 -29 -13z"/>
<path d="M4800 3341 c-55 -36 -85 -81 -120 -179 l-26 -72 -48 58 c-54 65 -114
108 -165 117 l-34 6 6 -38 c10 -66 15 -82 44 -136 30 -55 219 -251 234 -241 5
3 17 22 27 42 10 20 34 66 54 102 20 36 43 92 51 125 16 63 23 221 10 228 -5
3 -19 -3 -33 -12z"/>
<path d="M1297 3324 c-1 -2 -14 -5 -27 -8 -63 -13 -74 -16 -83 -25 -15 -15 54
-29 93 -18 27 7 75 31 82 42 9 11 11 -4 8 -48 -2 -37 35 -111 66 -132 l25 -16
-15 29 c-14 28 -24 65 -31 120 -6 41 -34 63 -77 60 -21 -1 -40 -3 -41 -4z"/>
<path d="M3910 3252 c-32 -11 -65 -58 -61 -84 0 -5 -3 -8 -9 -8 -5 0 -7 -7 -4
-15 9 -23 -4 -49 -19 -37 -35 29 -105 57 -134 54 -35 -3 -46 -27 -14 -29 10
-1 41 -12 68 -24 53 -24 94 -31 115 -18 7 5 9 9 3 9 -5 0 -5 4 2 8 11 7 76
143 71 147 -2 1 -10 0 -18 -3z"/>
<path d="M1215 3196 c-87 -29 -100 -37 -85 -47 25 -16 83 -6 130 23 l45 27 5
-47 c9 -70 48 -132 84 -132 5 0 -15 52 -36 93 -5 10 -7 21 -5 25 3 4 -3 21
-13 37 -19 35 -61 42 -125 21z"/>
<path d="M3952 3107 c-32 -23 -52 -55 -52 -85 0 -37 -15 -45 -46 -26 -16 10
-35 24 -42 31 -7 7 -19 13 -25 14 -7 1 -23 2 -37 3 -14 2 -35 0 -45 -4 -16 -6
-13 -9 20 -20 22 -7 49 -19 60 -26 11 -7 39 -20 62 -28 42 -15 42 -15 67 14
27 33 81 138 74 145 -2 2 -18 -6 -36 -18z"/>
<path d="M1137 3051 c-44 -21 -75 -41 -70 -43 4 -2 27 -3 51 -2 32 1 53 9 83
34 40 32 48 33 53 8 10 -57 53 -122 86 -131 11 -3 20 -1 20 4 0 5 -4 9 -8 9
-8 0 -42 69 -42 86 0 18 -47 63 -71 68 -16 4 -50 -7 -102 -33z"/>
<path d="M4005 2978 c-34 -18 -65 -59 -75 -99 l-11 -38 -27 27 c-41 42 -93 67
-130 64 -31 -3 -37 -22 -7 -22 8 0 40 -18 71 -40 57 -40 114 -53 114 -27 0 7
9 19 20 27 11 8 20 20 20 27 0 7 5 13 10 13 6 0 10 7 10 15 0 8 5 15 10 15 6
0 10 5 10 11 0 7 8 18 18 25 14 11 14 13 2 13 -8 0 -24 -5 -35 -11z"/>
<path d="M1155 2948 c-11 -6 -22 -14 -25 -17 -8 -10 -64 -42 -82 -48 -32 -10
-19 -21 20 -18 20 2 40 3 45 4 4 1 27 19 50 40 l43 40 17 -49 c17 -47 56 -88
100 -103 23 -8 22 -3 -6 27 -12 13 -29 37 -37 53 -36 72 -80 97 -125 71z"/>
<path d="M4489 2872 c-6 -71 13 -176 42 -233 18 -37 133 -194 148 -204 8 -4
150 173 164 205 4 8 11 22 17 30 14 21 33 71 35 95 2 11 6 35 9 53 5 27 3 32
-12 32 -10 0 -23 -5 -30 -12 -7 -7 -12 -8 -12 -4 0 9 -67 -31 -90 -54 -8 -8
-22 -28 -30 -44 -41 -80 -40 -80 -64 -28 -10 20 -17 37 -15 37 2 0 -11 21 -30
47 -35 49 -62 71 -106 88 -21 8 -25 6 -26 -8z"/>
<path d="M545 2868 c-36 -20 -85 -80 -107 -129 -32 -75 -41 -77 -72 -16 -29
54 -77 96 -135 115 -50 17 -53 16 -46 -30 10 -75 51 -168 95 -221 6 -7 36 -45
67 -85 l56 -72 28 32 c50 58 125 172 142 215 19 49 31 120 28 176 -1 30 -21
35 -56 15z"/>
<path d="M4008 2827 c-17 -10 -38 -37 -50 -65 -26 -60 -25 -59 -46 -36 -18 19
-22 27 -22 42 0 17 -68 52 -101 52 l-34 -1 30 -22 c16 -12 36 -30 45 -40 24
-30 86 -66 106 -62 11 2 22 4 26 4 4 1 25 27 47 59 22 32 50 66 63 75 l23 16
-29 -2 c-15 -1 -41 -10 -58 -20z"/>
<path d="M1098 2794 c-23 -20 -45 -39 -48 -43 -3 -4 -16 -15 -30 -24 -25 -17
-24 -17 25 -12 27 3 53 11 57 18 4 8 23 31 41 52 l34 38 16 -33 c10 -18 17
-39 17 -45 0 -16 57 -60 88 -67 29 -8 28 -1 -3 24 -14 11 -25 26 -25 34 0 8
-16 32 -36 54 -47 52 -77 53 -136 4z"/>
<path d="M1155 2690 c-4 -6 -10 -8 -14 -6 -4 3 -29 -15 -55 -40 -27 -24 -60
-51 -75 -59 l-26 -14 32 -1 c48 0 78 17 113 67 l32 44 28 -45 c32 -50 64 -74
106 -82 l29 -5 -35 33 c-20 18 -45 44 -55 58 -27 34 -72 62 -80 50z"/>
<path d="M3774 2689 c-3 -5 0 -9 6 -9 6 0 37 -27 69 -60 77 -80 89 -79 175 11
68 71 68 76 -5 48 -15 -6 -35 -26 -45 -45 -10 -19 -22 -34 -26 -34 -3 0 -8 -8
-10 -17 -2 -12 -13 -2 -35 32 -18 28 -42 56 -54 64 -27 16 -68 22 -75 10z"/>
<path d="M3796 2548 c134 -144 135 -144 213 -73 20 18 47 42 61 53 l25 21 -35
-4 c-49 -6 -71 -20 -104 -66 -21 -30 -31 -37 -37 -28 -4 7 -5 17 -3 21 3 4 1
8 -3 8 -5 0 -13 10 -18 22 -13 28 -51 56 -94 68 l-34 10 29 -32z"/>
<path d="M1071 2492 c-69 -68 -70 -70 -38 -65 37 5 90 52 108 94 13 33 25 37
33 11 13 -39 72 -83 117 -88 37 -5 41 -3 24 7 -11 6 -40 31 -65 55 -26 25 -59
46 -77 50 -30 6 -38 1 -102 -64z"/>
<path d="M600 2500 c-19 -10 -42 -26 -51 -36 -18 -21 -61 -101 -80 -149 -10
-28 -12 -29 -23 -11 -44 75 -103 117 -183 131 l-41 6 8 -38 c16 -80 60 -148
172 -266 l85 -88 18 28 c10 15 18 30 16 32 -1 2 2 7 7 10 19 12 82 133 99 189
14 48 22 197 11 207 -2 2 -19 -5 -38 -15z"/>
<path d="M4449 2503 c-5 -30 -4 -116 2 -153 9 -57 50 -145 107 -232 l44 -68
80 83 c114 118 167 201 182 280 5 28 5 29 -36 22 -82 -14 -141 -54 -173 -115
-9 -17 -17 -30 -19 -30 -3 0 -22 38 -45 83 -26 55 -52 93 -75 110 -34 26 -65
35 -67 20z"/>
<path d="M3783 2441 c6 -9 18 -22 25 -30 7 -7 21 -29 31 -50 10 -20 29 -45 40
-55 22 -20 22 -20 77 7 30 15 61 32 67 37 7 6 23 19 37 30 l25 21 -42 -4 c-48
-5 -85 -26 -109 -62 -22 -34 -29 -32 -43 14 -12 41 -78 108 -106 108 -12 0
-12 -3 -2 -16z"/>
<path d="M1139 2412 c-8 -9 -29 -35 -45 -57 -16 -22 -38 -48 -49 -57 -26 -22
-5 -24 38 -3 32 15 68 61 82 103 7 23 8 22 41 -17 35 -40 80 -62 122 -59 26 3
30 18 4 18 -9 0 -29 11 -44 25 -39 36 -90 65 -113 64 -11 0 -27 -8 -36 -17z"/>
<path d="M3777 2293 c59 -108 72 -123 101 -123 25 0 187 89 167 91 -49 5 -78
3 -87 -8 -6 -7 -14 -13 -19 -13 -5 0 -22 -13 -37 -30 l-29 -30 -28 71 c-20 52
-34 73 -52 80 -41 15 -43 11 -16 -38z"/>
<path d="M1165 2279 c-14 -11 -25 -27 -25 -35 0 -8 -4 -14 -10 -14 -5 0 -9 -3
-8 -7 2 -8 -21 -54 -31 -63 -3 -3 -13 -14 -21 -24 -14 -17 -11 -17 27 3 44 22
70 51 76 86 11 55 17 57 58 24 45 -35 92 -51 126 -43 23 6 21 8 -18 26 -24 10
-46 22 -49 26 -8 11 -53 32 -77 37 -12 2 -33 -5 -48 -16z"/>
<path d="M3727 2203 c11 -15 26 -46 33 -68 22 -71 51 -105 88 -105 19 0 31 4
27 10 -3 5 6 12 20 16 14 3 25 10 25 15 0 5 9 9 19 9 11 0 23 5 26 10 3 6 16
10 28 10 18 0 19 2 7 10 -33 22 -104 4 -148 -37 -22 -21 -31 -15 -38 26 -9 53
-36 97 -75 116 l-32 17 20 -29z"/>
<path d="M700 2194 c0 -6 -11 -17 -25 -24 -26 -14 -83 -115 -71 -127 3 -3 2
-11 -3 -17 -5 -6 -12 -29 -15 -50 -15 -91 -14 -90 -55 -49 -47 47 -89 64 -168
67 -64 3 -64 3 -58 -22 8 -32 57 -103 102 -149 35 -35 231 -169 237 -162 8 11
50 120 67 172 30 93 37 166 25 261 -6 52 -34 131 -36 100z"/>
<path d="M4365 2163 c-21 -76 -22 -194 -1 -288 2 -11 19 -59 37 -105 18 -47
32 -88 31 -92 -10 -38 149 54 243 141 38 35 115 146 115 166 0 13 -72 13 -134
0 -39 -8 -58 -19 -104 -63 -24 -23 -34 -23 -38 1 -9 52 -15 81 -19 87 -2 3 -6
18 -9 33 -8 44 -37 96 -68 122 -37 32 -44 31 -53 -2z"/>
<path d="M1215 2160 c-11 -5 -15 -9 -10 -9 6 -1 6 -4 0 -9 -12 -8 -47 -84 -43
-92 1 -3 -5 -16 -15 -30 -23 -34 -21 -42 8 -28 34 15 66 85 74 161 1 4 19 -7
42 -25 33 -27 50 -33 95 -35 30 -1 54 3 54 8 0 5 -5 9 -12 9 -6 0 -35 11 -64
25 -64 30 -102 38 -129 25z"/>
<path d="M3679 2103 c5 -10 10 -22 10 -28 3 -23 13 -53 38 -107 24 -53 28 -56
57 -53 17 1 45 8 61 15 39 15 66 22 88 22 29 -1 19 16 -15 24 -41 9 -78 6 -98
-9 -8 -7 -25 -18 -37 -25 -22 -12 -23 -10 -24 23 -1 19 -3 40 -4 45 -1 6 -3
17 -4 25 0 8 -15 30 -32 50 -33 37 -56 48 -40 18z"/>
<path d="M1263 2028 c-22 -25 -55 -113 -45 -122 3 -3 -1 -6 -8 -6 -7 0 -10 -3
-7 -7 4 -3 0 -15 -10 -25 -25 -28 1 -21 35 10 33 30 44 56 44 108 0 19 3 34 8
34 4 0 27 -11 51 -25 34 -18 55 -23 89 -20 48 5 72 19 37 23 -43 4 -55 8 -71
21 -9 7 -16 10 -16 6 0 -4 -11 0 -25 9 -33 22 -58 20 -82 -6z"/>
<path d="M3616 1995 c4 -8 10 -15 16 -15 5 0 7 -4 4 -8 -8 -13 23 -155 36
-164 12 -8 103 -4 153 6 11 3 28 5 38 5 26 1 20 15 -11 27 -42 16 -97 9 -131
-16 -17 -12 -31 -20 -32 -18 0 2 -2 28 -3 58 -2 30 -4 55 -5 55 -2 0 -4 8 -6
19 -4 19 -43 66 -56 66 -5 0 -6 -7 -3 -15z"/>
<path d="M1332 1909 c-11 -11 -25 -41 -31 -67 -7 -26 -16 -60 -21 -76 -12 -38
-6 -44 21 -20 32 29 47 65 46 114 0 50 2 51 68 26 51 -19 106 -20 131 -1 10 8
17 15 14 15 -33 8 -126 22 -167 26 -33 3 -46 0 -61 -17z"/>
<path d="M3555 1854 c12 -115 15 -129 37 -147 18 -15 32 -17 92 -11 39 4 83 7
99 6 15 0 27 2 27 3 0 6 -76 39 -90 40 -8 0 -36 -7 -62 -16 -26 -9 -49 -15
-51 -13 -2 2 -1 23 2 47 4 23 6 48 5 55 -1 6 -2 20 -3 30 -1 9 -16 28 -32 41
l-30 24 6 -59z"/>
<path d="M810 1870 c0 -5 -5 -9 -11 -7 -29 6 -77 -129 -84 -238 -4 -67 -7 -71
-29 -50 -45 45 -166 75 -246 61 -14 -2 -31 -5 -37 -5 -23 -2 -14 -23 32 -76
60 -71 120 -107 266 -161 68 -25 126 -50 130 -55 5 -9 20 47 34 126 2 17 7 41
10 55 3 14 8 70 10 125 4 97 -6 161 -35 214 -11 21 -40 29 -40 11z"/>
<path d="M4230 1838 c-24 -54 -30 -89 -30 -158 0 -55 2 -77 15 -160 4 -25 8
-52 9 -60 2 -8 6 -31 10 -50 16 -74 7 -72 119 -28 56 22 107 40 112 42 60 13
235 155 235 191 0 17 -26 23 -102 23 -67 0 -143 -23 -190 -58 -15 -11 -28 -20
-30 -20 -2 0 -4 21 -5 48 -2 66 -8 106 -17 120 -4 7 -5 12 -2 12 12 0 -28 86
-52 113 -35 37 -50 34 -72 -15z"/>
<path d="M1422 1813 c-20 -8 -40 -54 -47 -113 -3 -30 -8 -63 -11 -72 -7 -25
16 -14 40 19 15 20 20 43 19 90 0 34 4 60 8 57 14 -8 49 -15 109 -21 45 -4 59
-1 78 15 l22 20 -27 0 c-16 0 -62 2 -103 5 -41 2 -81 2 -88 0z"/>
<path d="M3466 1797 c4 -12 7 -55 6 -94 -3 -100 7 -108 133 -108 52 0 95 3 95
6 0 4 -16 15 -36 24 -36 17 -79 16 -142 -1 -21 -6 -22 -4 -16 27 12 61 11 104
-5 131 -20 36 -45 47 -35 15z"/>
<path d="M1540 1718 c0 -5 -3 -7 -7 -6 -15 3 -48 -17 -52 -32 -2 -8 -6 -40 -8
-70 -2 -30 -5 -67 -7 -82 -4 -37 4 -35 34 8 23 34 31 90 19 134 -3 12 7 14 64
12 68 -4 121 9 130 31 3 9 -21 12 -84 12 -49 0 -89 -3 -89 -7z"/>
<path d="M3385 1667 c0 -34 -3 -70 -7 -79 -5 -9 -4 -20 2 -23 6 -4 8 -10 5
-15 -11 -17 8 -39 38 -46 18 -4 59 -8 93 -9 34 -1 67 -6 75 -10 12 -7 12 -6 0
9 -33 40 -87 55 -154 41 l-37 -7 10 28 c20 52 22 101 6 132 -25 49 -32 45 -31
-21z"/>
<path d="M1776 1643 c-2 -3 -35 -6 -73 -8 -37 -3 -78 -10 -90 -16 -23 -12 -25
-22 -25 -94 0 -19 0 -56 1 -81 l1 -47 21 27 c26 33 31 90 13 134 -7 17 -12 32
-11 33 1 0 34 2 73 3 67 2 124 22 124 45 0 8 -27 11 -34 4z"/>
<path d="M3300 1650 c-1 -3 -3 -21 -4 -40 -2 -19 -8 -53 -15 -75 -21 -66 -12
-95 32 -110 20 -7 37 -11 37 -10 0 2 21 -3 47 -11 77 -23 92 -19 48 16 -21 17
-46 31 -56 31 -11 1 -25 2 -31 3 -7 1 -25 -1 -40 -5 -16 -4 -28 -7 -28 -6 0 1
9 26 20 55 23 61 25 97 5 132 -8 14 -15 23 -15 20z"/>
<path d="M1860 1573 c-25 -8 -59 -15 -76 -17 -67 -7 -98 -45 -89 -109 3 -17 8
-55 11 -84 5 -39 9 -49 19 -40 6 6 12 16 13 22 1 5 4 22 8 37 3 16 -1 47 -10
74 -9 26 -14 50 -11 52 3 3 22 6 42 7 64 3 100 15 123 40 13 14 22 26 19 28
-2 2 -24 -2 -49 -10z"/>
<path d="M3182 1564 c-1 -14 -9 -46 -17 -70 -22 -65 -20 -110 7 -128 12 -9 30
-16 40 -16 10 0 18 -5 18 -11 0 -6 6 -9 13 -6 6 2 33 -4 60 -13 26 -10 47 -14
47 -9 0 5 -4 9 -9 9 -5 0 -13 9 -16 20 -9 29 -57 50 -113 50 l-50 0 27 53 c31
62 35 85 22 120 -13 34 -26 34 -29 1z"/>
<path d="M966 1548 c-30 -47 -39 -170 -21 -279 7 -38 11 -69 9 -69 -2 0 -27
11 -56 24 -89 42 -149 50 -225 32 -47 -11 -48 -21 -11 -58 70 -70 183 -132
257 -143 14 -2 37 -7 51 -10 14 -3 55 -8 92 -11 l67 -5 -4 78 c-14 250 -46
367 -121 441 l-23 22 -15 -22z"/>
<path d="M4087 1550 c-14 -11 -40 -49 -57 -83 -30 -61 -34 -76 -45 -147 -3
-20 -7 -45 -9 -55 -2 -11 -7 -68 -11 -127 l-6 -107 63 4 c70 4 114 11 173 27
22 6 43 12 47 12 4 1 13 7 20 14 6 6 22 12 35 12 13 0 23 5 23 10 0 6 5 10 10
10 19 0 117 94 120 115 2 15 -61 32 -110 30 -69 -4 -98 -12 -151 -40 -59 -30
-59 -30 -53 -2 18 91 23 209 11 252 -4 17 -10 38 -12 47 -2 10 -8 25 -13 33
-7 14 -11 13 -35 -5z"/>
<path d="M3083 1518 c0 -13 -12 -49 -26 -79 -43 -95 -40 -121 18 -149 25 -12
53 -23 62 -25 10 -2 20 -4 23 -5 3 -1 8 -2 13 -1 4 0 7 -3 7 -8 0 -5 9 -11 21
-14 19 -5 19 -4 6 16 -23 35 -61 58 -103 64 -21 3 -43 9 -48 13 -5 5 5 30 22
58 22 36 29 59 28 90 -2 46 -23 82 -23 40z"/>
<path d="M1985 1521 c-6 -5 -39 -18 -75 -30 -36 -12 -71 -25 -79 -30 -15 -9
-24 -78 -13 -96 3 -5 7 -19 8 -30 1 -12 8 -41 15 -66 9 -31 14 -38 17 -24 2
11 8 25 12 30 14 18 3 93 -19 129 -21 34 -21 36 -4 37 69 3 138 32 161 67 12
19 12 22 0 22 -8 0 -18 -4 -23 -9z"/>
<path d="M2032 1444 c-46 -23 -86 -44 -89 -48 -20 -20 7 -147 43 -200 12 -17
13 -16 18 15 4 19 5 41 3 51 -4 22 -40 92 -49 96 -19 9 -4 21 39 31 25 7 58
18 73 26 29 15 65 61 52 68 -4 2 -44 -15 -90 -39z"/>
<path d="M2941 1420 c-17 -39 -31 -75 -31 -80 0 -6 -4 -10 -9 -10 -5 0 -11 -9
-14 -20 -6 -23 29 -51 120 -97 l61 -31 -9 27 c-11 30 -64 65 -117 76 l-34 7
20 21 c36 39 62 97 62 137 0 22 -4 40 -9 40 -4 0 -22 -32 -40 -70z"/>
<path d="M2230 1440 c-14 -11 -33 -20 -42 -20 -10 0 -18 -4 -18 -9 0 -5 -10
-11 -22 -15 -41 -10 -79 -49 -81 -81 -1 -16 11 -59 28 -95 16 -36 28 -69 27
-73 -2 -5 3 -7 10 -5 19 7 16 90 -5 119 -9 13 -25 35 -34 49 -10 13 -12 21 -5
16 7 -4 12 -2 12 4 0 6 5 8 10 5 6 -3 10 -1 10 6 0 7 3 9 6 6 4 -3 16 0 28 8
11 8 27 15 36 15 20 0 60 43 65 69 5 25 6 25 -25 1z"/>
<path d="M2840 1436 c0 -9 -17 -42 -39 -74 -53 -78 -56 -94 -28 -123 30 -31
76 -69 83 -69 3 0 17 -9 31 -20 35 -28 43 -25 30 10 -6 16 -13 27 -15 25 -3
-2 -13 6 -23 19 -17 21 -37 32 -92 50 -16 5 -14 10 17 41 20 19 36 37 36 39 0
3 5 17 11 33 16 37 16 76 1 81 -7 2 -12 -4 -12 -12z"/>
<path d="M2356 1419 c-4 -8 -29 -28 -56 -44 -28 -16 -50 -33 -50 -37 0 -4 -6
-8 -13 -8 -22 0 -39 -42 -29 -70 5 -14 10 -29 10 -33 1 -4 8 -15 17 -23 8 -9
15 -22 15 -30 0 -8 3 -14 8 -14 4 0 14 -15 22 -32 l14 -33 6 25 c4 14 3 33 -2
43 -5 9 -6 17 -3 17 12 0 -30 61 -52 76 -25 16 -30 34 -11 34 6 0 30 9 53 20
42 20 91 88 82 113 -3 8 -7 7 -11 -4z"/>
<path d="M2716 1399 c-41 -48 -85 -116 -91 -141 -6 -22 -1 -33 23 -55 80 -76
112 -101 118 -92 3 6 1 15 -4 22 -6 7 -11 17 -12 22 -6 26 -15 34 -61 59 -44
24 -63 46 -41 46 20 0 90 81 94 109 6 42 -4 55 -26 30z"/>
<path d="M2404 1337 c-39 -39 -70 -78 -69 -84 2 -7 3 -17 4 -23 0 -5 16 -27
35 -47 18 -21 43 -54 55 -73 l21 -35 0 40 c0 52 -50 124 -87 125 -7 0 -13 7
-13 16 0 9 6 14 13 11 17 -6 97 51 106 76 18 48 22 67 14 67 -4 0 -40 -33 -79
-73z"/>
<path d="M2588 1378 c-16 -17 -28 -32 -28 -34 0 -2 -16 -18 -35 -36 -56 -52
-54 -70 18 -147 34 -36 63 -68 64 -70 10 -15 11 11 2 41 -6 25 -24 48 -52 69
-23 18 -46 36 -51 40 -4 4 5 14 20 23 46 24 83 61 88 87 3 13 5 24 6 24 1 0 3
8 5 18 5 25 -6 21 -37 -15z"/>
<path d="M1195 1173 c2 -108 6 -139 26 -201 13 -40 9 -45 -22 -33 -13 5 -58 8
-100 6 -60 -2 -89 -8 -133 -30 -31 -15 -56 -33 -56 -39 0 -13 101 -76 122 -76
8 0 19 -5 26 -12 7 -7 12 -9 12 -5 0 3 12 2 27 -4 15 -5 59 -10 98 -11 71 0
237 11 243 16 6 6 -37 184 -63 261 -32 97 -65 154 -116 199 -63 57 -67 52 -64
-71z"/>
<path d="M3850 1263 c-14 -9 -36 -28 -49 -42 -36 -40 -102 -191 -116 -268 -2
-16 -13 -58 -24 -96 -10 -37 -15 -69 -12 -71 23 -14 272 -22 321 -11 14 3 36
8 49 11 44 9 161 76 161 92 0 11 -61 43 -108 57 -43 13 -173 13 -204 0 -22 -9
-22 -2 -3 34 20 39 26 72 30 177 4 89 -1 134 -14 134 -4 0 -18 -8 -31 -17z"/>
<path d="M1465 963 c6 -102 24 -193 38 -193 6 0 7 -3 4 -6 -4 -4 2 -19 13 -34
11 -16 20 -30 20 -32 0 -1 -28 -3 -63 -3 -65 0 -182 -30 -205 -52 -7 -7 -26
-20 -42 -30 -17 -10 -29 -22 -27 -28 1 -5 30 -23 62 -40 54 -27 69 -30 155
-30 71 0 125 8 215 30 66 16 121 30 123 31 2 1 -5 19 -14 40 -26 60 -31 73
-60 164 -51 160 -95 229 -161 256 -62 26 -64 24 -58 -73z"/>
<path d="M3565 1036 c-43 -20 -90 -73 -115 -131 -25 -58 -60 -152 -65 -176 -7
-33 -35 -109 -47 -128 -15 -24 -10 -30 25 -33 15 -1 27 -6 27 -11 0 -4 4 -6 8
-3 4 3 42 -5 83 -16 51 -14 107 -21 180 -22 98 -1 109 1 164 29 32 17 60 35
62 41 2 5 -15 20 -37 33 -22 12 -40 26 -40 32 0 5 -3 8 -7 7 -5 0 -15 2 -23 5
-48 19 -122 33 -172 33 -32 -1 -58 -1 -58 0 0 0 12 23 26 50 14 27 27 56 29
65 10 49 18 131 19 179 1 62 -8 69 -59 46z"/>
<path d="M1747 872 c-3 -4 -3 -14 -2 -22 2 -8 6 -31 10 -50 10 -58 60 -158
101 -206 21 -26 40 -50 42 -54 2 -4 -21 -13 -50 -20 -29 -7 -65 -19 -80 -27
-15 -7 -30 -13 -33 -12 -14 2 -96 -45 -119 -68 -21 -20 -24 -29 -14 -40 30
-37 90 -49 198 -40 11 1 20 5 20 10 0 4 4 6 9 3 4 -3 50 16 102 42 91 46 97
47 180 46 48 0 95 -5 105 -9 11 -4 28 -10 40 -12 11 -2 49 -14 82 -27 34 -14
62 -21 62 -18 0 10 20 -21 20 -32 0 -5 -3 -7 -6 -3 -3 3 -17 2 -30 -3 -22 -9
-245 -58 -287 -64 -36 -5 -39 -21 -13 -80 14 -31 26 -56 28 -56 10 0 154 63
165 72 7 6 13 8 13 4 0 -4 13 0 30 9 60 31 203 85 226 85 28 0 125 -36 212
-78 34 -17 62 -28 62 -25 0 3 7 0 15 -7 8 -7 15 -9 15 -4 0 5 4 4 8 -1 8 -13
123 -58 129 -51 3 2 6 10 7 18 1 7 10 30 19 52 19 42 21 56 10 56 -5 1 -28 5
-53 11 -25 5 -59 11 -77 14 -64 8 -223 54 -223 64 0 4 19 14 43 21 23 7 57 19
75 27 18 8 42 15 52 16 11 1 20 4 20 7 0 4 6 7 13 7 26 1 122 14 125 17 8 9
90 -18 169 -55 48 -23 96 -43 105 -45 53 -12 65 -14 93 -15 38 -1 65 5 103 25
42 22 45 30 19 52 -52 45 -90 65 -178 94 -52 17 -99 33 -106 35 -7 2 5 22 30
48 41 44 95 163 116 259 l9 37 -39 -4 c-21 -2 -51 -11 -66 -19 -41 -22 -113
-95 -113 -115 0 -5 -3 -11 -7 -13 -5 -2 -19 -25 -33 -53 -49 -97 -94 -133
-245 -195 -106 -43 -158 -63 -170 -65 -5 -2 -34 -10 -64 -19 -30 -9 -65 -16
-77 -16 -25 0 -171 43 -219 65 -16 7 -73 30 -124 51 -74 29 -105 48 -143 86
-26 27 -48 53 -48 58 0 15 -80 143 -104 166 -30 29 -70 54 -95 59 -11 3 -30 7
-41 9 -11 3 -21 2 -23 -2z"/>
</g>
</svg>
